<svg xmlns="http://www.w3.org/2000/svg" viewBox="0 0 291.37 291.16"><defs><style>.cls-1{fill:#437ef7;}</style></defs><g id="Layer_2" data-name="Layer 2"><g id="Layer_1-2" data-name="Layer 1"><path class="cls-1" d="M149.78,51.39c-5.51,6-11,11.78-16.27,17.72-3.27,3.66-6,3.54-9.44,0C112.3,57,113,59.91,123.67,48.47c17.21-18.39,35.63-35.23,58-47.28,1.71-.93,4-.82,6-1.19-.41,1.9-.28,4.18-1.32,5.64C177.21,18.49,167.85,31.15,158.75,44c-1,1.4-.8,3.64-1.16,5.49,1.72-.08,3.71.39,5.12-.31,9.92-5,9.86-5,17.56,2.66Q233.46,105,286.67,158.15c6.23,6.22,6.24,7.07.2,13.15-1,1-2.17,2-3.12,3.13-3.35,3.91-6.37,3.73-10,0-13.45-13.67-27.08-27.15-40.65-40.7Q194,94.7,154.81,55.64C153.65,54.48,152.31,53.51,149.78,51.39Z"/><path d="M247.64,250.11c-6.22,1.79-11.55,3.29-16.86,4.86-7.41,2.18-9.22,5.39-7.13,12.53s5.13,8.66,12.7,6.7c5.59-1.44,11.2-2.83,16.91-4.27.34,1.56.79,2.37.56,2.7-6.37,9.15-14,17.09-25.56,18.47-3.82.45-8.84-1.7-12-4.29-9.72-8.1-20.23-11.05-33-10.58-25.23.92-50.51.42-75.76.15a18.13,18.13,0,0,0-13.92,5.68c-9.26,9-27.24,11-38.43,4.65-.79-.44-1.23-1.49-2.71-3.36,5.93-1.69,11-3.2,16.12-4.58,8.18-2.23,9.77-4.8,7.66-12.66-1.94-7.26-4.86-8.84-12.65-6.81-4.27,1.11-8.5,2.39-12.81,3.29-1.39.29-3-.37-4.47-.6.39-1.33.36-3.16,1.24-3.91,5.92-5,11.48-10.92,18.3-14.17,4.1-1.95,10.25.38,15.48.81a1,1,0,0,1,.53.32c11,11.14,24.62,12.27,39.41,11.78,24.18-.81,48.4-.33,72.61-.12a15.69,15.69,0,0,0,11.77-4.57c10.95-10.23,25.23-12.17,38.78-5.62C245.41,247,246,248.2,247.64,250.11Z"/><path class="cls-1" d="M56.42,124.73c-4.58-4.45-1.08-7.9,2.61-11.56,13.17-13,26.22-26.22,39.35-39.3,5.4-5.38,6.9-5.35,12.4.1,6,5.94,12,11.81,17.83,17.93a33.33,33.33,0,0,1,4.71,40.28c-7.6,12.86-22,18.8-36.91,15.38-6.76-1.55-13.58-2.89-20.4-4.19-3.94-.74-6.53-1.72-5.79-7,.28-1.95-2.84-4.94-5.08-6.45-1.13-.76-4.4.11-5.63,1.33-14,13.75-27.63,27.78-41.58,41.53-2,2-6.28,4.88-7.51,4.12-4-2.45-7.11-6.35-10.36-9.88-.3-.33.62-2.64,1.36-2.89,1.41-.48,3.42-.7,4.6,0a40.67,40.67,0,0,1,5.79,4.69ZM107,104.54l6.65-4.86c-1.86-1.86-3.43-4.81-5.61-5.37-8.26-2.12-17.62,2.54-22,10.15a21,21,0,0,0,2.84,25.12,21.41,21.41,0,0,0,24.31,5c8.17-3.72,13.47-12.28,12.18-20.85-.31-2.06-2.91-3.78-4.45-5.65-1.54,1.9-3.52,3.59-4.5,5.74-1.1,2.39-.75,5.49-2,7.75-2.72,4.93-9,6.73-14.33,4.69a12.1,12.1,0,0,1-7.37-13.8C94.14,106.47,99,103.13,107,104.54Z"/><path d="M173.77,212.76c6.27,0,12.73.2,19.17,0,14.6-.56,29.33,1.78,43.7-4,4.21-1.68,10.27.72,15.28,2,1.12.29,1.94,3.82,1.91,5.83,0,1.39-1.51,3.61-2.77,4-6.42,1.84-12.75,3.85-19.58.4a29.53,29.53,0,0,0-12.24-2.58c-13.89-.31-27.79-.1-41.68-.18-3,0-4.47.84-4.73,4.25-.55,7-6.8,10.12-12.34,5.75-9.88-7.8-19.17-8.3-29.21-.55-1.93,1.49-5.14,1.8-7.77,1.82-22.31.15-44.63.14-66.94.1-8,0-10.62-2.62-10.74-10.46-.28-17.09.54-17.94,17.43-17.94,19.16,0,38.32-.25,57.47.2a29.32,29.32,0,0,1,13.36,4.12c8.57,4.95,15.93,5,24.06-.92a16.76,16.76,0,0,1,6-3.17C170.22,200.18,171.94,202.23,173.77,212.76Z"/><path class="cls-1" d="M142.37,81.15c4.33,2.7,9.28,4.75,12.89,8.2q21.23,20.28,41.58,41.44c2.21,2.32,2,6.9,3.17,11.15l4.61-2.94c6,2.48.34,6.75,1.44,11.16l7.74-4.67c-.26,4.34-.44,7.41-.69,11.65l6.3-3.58c6.21,2.59.11,6.73,1.14,11.21l6.21-3.76c.56.33,1.49.57,1.89,1.17,3.83,5.71,8.93,6,14.77,3.71,1.55-.6,3.41-1.33,4.88-1a9.55,9.55,0,0,1,5,3.11c.54.68-.34,3.2-1.3,4.2q-9.6,10-19.59,19.69c-1,1-3.3,1.88-4.2,1.38a7.89,7.89,0,0,1-3-4.33,6.58,6.58,0,0,1,.45-4.32c3.41-7.57.27-12.48-5.3-17.87-23.6-22.82-46.82-46-69.92-69.37-4-4-6.79-9.33-10.14-14Z"/><path class="cls-1" d="M80.59,163.22v18.09c-6,0-11.77.08-17.55,0-3-.06-4.62.76-4.83,4.16-.17,2.67,1.71,7.77-3.41,6.83-3.24-.59-8.06-4.15-8.39-6.85-1.07-8.67-.77-17.59-.13-26.36.17-2.32,3.08-5.07,5.42-6.44,3.31-1.93,7-1.78,6.43,3.64-.66,6.32,2.56,7.39,7.83,7C70.71,163,75.49,163.22,80.59,163.22Z"/><path class="cls-1" d="M193.22,172.59c-.73,3.41-.34,8.12-2.44,9.92-4.35,3.75-10,8.16-15.16,8.18s-11.09-4.17-15.11-8.11c-2.33-2.28-2-7.72-2-11.74,0-3.15.08-7.63,2-9.21,4.45-3.65,10.06-8.12,15.18-8.09s10.88,4.42,15.11,8.27C193,163.79,192.47,168.75,193.22,172.59Zm-8.14-.74a9.73,9.73,0,0,0-9.86-9.4c-5,.17-9.65,5-9.46,10s5.08,9.61,10,9.44A9.84,9.84,0,0,0,185.08,171.85Z"/><path class="cls-1" d="M99,181.38c-.57-6.14-1.11-11.9-1.7-18.31,9.46.05,5.92,7.33,7.16,11.19C105.54,177.6,106.18,182.31,99,181.38Z"/><path class="cls-1" d="M110.38,180.86c-.56-5.58-1.13-11.31-1.71-17.05,6.4-.53,7.12.93,7.45,12.34C116.23,179.88,115.74,182.53,110.38,180.86Z"/><path class="cls-1" d="M120,163.38c9.57,2,6,9,7.28,13.91.35,1.38-2.1,3.47-3.27,5.23l-2.09-.91Z"/><path class="cls-1" d="M131.27,162.7c10.07,1.47,6.08,8.92,7.31,13.38s.49,4.64-5.24,5.65C132.69,175.77,132.05,169.86,131.27,162.7Z"/><path class="cls-1" d="M87.63,181.06c-.53-5.71-1.07-11.47-1.72-18.49,8.94,1.32,6.49,8.15,7.26,12.34C94.26,180.82,93.69,181,87.63,181.06Z"/></g></g></svg>